<?xml version="1.0" encoding="UTF-8" standalone="no"?>
<!-- Created with Inkscape (http://www.inkscape.org/) -->

<svg
   xmlns:dc="http://purl.org/dc/elements/1.1/"
   xmlns:cc="http://creativecommons.org/ns#"
   xmlns:rdf="http://www.w3.org/1999/02/22-rdf-syntax-ns#"
   xmlns:svg="http://www.w3.org/2000/svg"
   xmlns="http://www.w3.org/2000/svg"
   xmlns:sodipodi="http://sodipodi.sourceforge.net/DTD/sodipodi-0.dtd"
   xmlns:inkscape="http://www.inkscape.org/namespaces/inkscape"
   width="138.63771mm"
   height="138.63771mm"
   viewBox="0 0 491.23598 491.23598"
   id="svg2"
   version="1.1"
   inkscape:version="0.91 r13725"
   sodipodi:docname="logo.svg"
   inkscape:export-filename="W:\Projects\UinT\src\support\icon.png"
   inkscape:export-xdpi="8.79"
   inkscape:export-ydpi="8.79">
  <defs
     id="defs4" />
  <sodipodi:namedview
     id="base"
     pagecolor="#ffffff"
     bordercolor="#666666"
     borderopacity="1.0"
     inkscape:pageopacity="0.0"
     inkscape:pageshadow="2"
     inkscape:zoom="0.35"
     inkscape:cx="425.34393"
     inkscape:cy="521.73693"
     inkscape:document-units="px"
     inkscape:current-layer="layer1"
     showgrid="false"
     inkscape:window-width="1920"
     inkscape:window-height="1147"
     inkscape:window-x="-8"
     inkscape:window-y="-8"
     inkscape:window-maximized="1"
     fit-margin-top="0"
     fit-margin-left="0"
     fit-margin-right="0"
     fit-margin-bottom="0" />
  <metadata
     id="metadata7">
    <rdf:RDF>
      <cc:Work
         rdf:about="">
        <dc:format>image/svg+xml</dc:format>
        <dc:type
           rdf:resource="http://purl.org/dc/dcmitype/StillImage" />
        <dc:title />
      </cc:Work>
    </rdf:RDF>
  </metadata>
  <g
     inkscape:label="Layer 1"
     inkscape:groupmode="layer"
     id="layer1"
     transform="translate(-208.57143,-186.74423)">
    <g
       id="g4206">
      <g
         transform="translate(208.57121,186.74422)"
         id="g3379"
         style="fill:#add943;fill-opacity:1">
        <g
           id="g3337"
           style="fill:#add943;fill-opacity:1">
          <g
             id="g3339"
             style="fill:#add943;fill-opacity:1">
            <path
               inkscape:connector-curvature="0"
               d="m 55.89,262.818 c -3,-26 -0.5,-51.1 6.3,-74.3 22.6,-77.1 93.5,-133.8 177.6,-134.8 l 0,-50.4 c 0,-2.8 3.5,-4.3 5.8,-2.6 l 103.7,76.2 c 1.7,1.3 1.7,3.9 0,5.1 l -103.6,76.2 c -2.4,1.7 -5.8,0.2 -5.8,-2.6 l 0,-50.3 c -55.3,0.9 -102.5,35 -122.8,83.2 -7.7,18.2 -11.6,38.3 -10.5,59.4 1.5,29 12.4,55.7 29.6,77.3 9.2,11.5 7,28.3 -4.9,37 -11.3,8.3 -27.1,6 -35.8,-5 -21.3,-26.6 -35.5,-59 -39.6,-94.4 z m 299.4,-96.8 c 17.3,21.5 28.2,48.3 29.6,77.3 1.1,21.2 -2.9,41.3 -10.5,59.4 -20.3,48.2 -67.5,82.4 -122.8,83.2 l 0,-50.3 c 0,-2.8 -3.5,-4.3 -5.8,-2.6 l -103.7,76.2 c -1.7,1.3 -1.7,3.9 0,5.1 l 103.6,76.2 c 2.4,1.7 5.8,0.2 5.8,-2.6 l 0,-50.4 c 84.1,-0.9 155.1,-57.6 177.6,-134.8 6.8,-23.2 9.2,-48.3 6.3,-74.3 -4,-35.4 -18.2,-67.8 -39.5,-94.4 -8.8,-11 -24.5,-13.3 -35.8,-5 -11.8,8.7 -14,25.5 -4.8,37 z"
               id="path3341"
               style="fill:#add943;fill-opacity:1" />
          </g>
        </g>
        <g
           id="g3343"
           style="fill:#add943;fill-opacity:1" />
        <g
           id="g3345"
           style="fill:#add943;fill-opacity:1" />
        <g
           id="g3347"
           style="fill:#add943;fill-opacity:1" />
        <g
           id="g3349"
           style="fill:#add943;fill-opacity:1" />
        <g
           id="g3351"
           style="fill:#add943;fill-opacity:1" />
        <g
           id="g3353"
           style="fill:#add943;fill-opacity:1" />
        <g
           id="g3355"
           style="fill:#add943;fill-opacity:1" />
        <g
           id="g3357"
           style="fill:#add943;fill-opacity:1" />
        <g
           id="g3359"
           style="fill:#add943;fill-opacity:1" />
        <g
           id="g3361"
           style="fill:#add943;fill-opacity:1" />
        <g
           id="g3363"
           style="fill:#add943;fill-opacity:1" />
        <g
           id="g3365"
           style="fill:#add943;fill-opacity:1" />
        <g
           id="g3367"
           style="fill:#add943;fill-opacity:1" />
        <g
           id="g3369"
           style="fill:#add943;fill-opacity:1" />
        <g
           id="g3371"
           style="fill:#add943;fill-opacity:1" />
      </g>
      <path
         inkscape:connector-curvature="0"
         id="path3356"
         d="m 428.57143,316.74422 a 90.000003,89.999995 0 0 1 -90,90.00001 90.000003,89.999995 0 0 1 -90,-90.00001 90.000003,89.999995 0 0 1 90,-89.99999 90.000003,89.999995 0 0 1 90,89.99999 z"
         style="fill:#ffffff" />
      <text
         sodipodi:linespacing="125%"
         id="text3465"
         y="375.90222"
         x="281.17999"
         style="font-style:normal;font-weight:normal;font-size:30.64935112px;line-height:125%;font-family:sans-serif;letter-spacing:0px;word-spacing:0px;fill:#add943;fill-opacity:1;stroke:none;stroke-width:1px;stroke-linecap:butt;stroke-linejoin:miter;stroke-opacity:1"
         xml:space="preserve"><tspan
           style="font-style:normal;font-variant:normal;font-weight:bold;font-stretch:normal;font-size:137.92207336px;font-family:'Droid Sans';-inkscape-font-specification:'Droid Sans Bold';fill:#add943;fill-opacity:1"
           y="375.90222"
           x="281.17999"
           id="tspan3467"
           sodipodi:role="line">F°</tspan></text>
      <path
         inkscape:connector-curvature="0"
         id="path3356-5"
         d="m 659.80741,557.9802 a 90.000007,89.999995 0 0 1 -90,90.00001 90.000007,89.999995 0 0 1 -90,-90.00001 90.000007,89.999995 0 0 1 90,-89.99999 90.000007,89.999995 0 0 1 90,89.99999 z"
         style="fill:#ffffff" />
      <text
         sodipodi:linespacing="125%"
         id="text3469"
         y="597.33911"
         x="497.63553"
         style="font-style:normal;font-weight:normal;font-size:30.64927292px;line-height:125%;font-family:sans-serif;letter-spacing:0px;word-spacing:0px;fill:#add943;fill-opacity:1;stroke:none;stroke-width:1px;stroke-linecap:butt;stroke-linejoin:miter;stroke-opacity:1"
         xml:space="preserve"><tspan
           style="font-style:normal;font-variant:normal;font-weight:bold;font-stretch:normal;font-size:137.92172241px;font-family:'Droid Sans';-inkscape-font-specification:'Droid Sans Bold';fill:#add943;fill-opacity:1"
           y="597.33911"
           x="497.63553"
           id="tspan3471"
           sodipodi:role="line">C°</tspan></text>
    </g>
  </g>
</svg>
