<?xml version="1.0" encoding="UTF-8" standalone="no"?>
<!-- Created with Inkscape (http://www.inkscape.org/) -->

<svg
   xmlns:dc="http://purl.org/dc/elements/1.1/"
   xmlns:cc="http://creativecommons.org/ns#"
   xmlns:rdf="http://www.w3.org/1999/02/22-rdf-syntax-ns#"
   xmlns:svg="http://www.w3.org/2000/svg"
   xmlns="http://www.w3.org/2000/svg"
   xmlns:sodipodi="http://sodipodi.sourceforge.net/DTD/sodipodi-0.dtd"
   xmlns:inkscape="http://www.inkscape.org/namespaces/inkscape"
   width="138.63771mm"
   height="138.63771mm"
   viewBox="0 0 491.23598 491.23598"
   id="svg2"
   version="1.1"
   inkscape:version="0.91 r13725"
   sodipodi:docname="logo-merged.svg"
   inkscape:export-filename="W:\Projects\UinT\src\support\icon.png"
   inkscape:export-xdpi="8.79"
   inkscape:export-ydpi="8.79">
  <defs
     id="defs4" />
  <sodipodi:namedview
     id="base"
     pagecolor="#ffffff"
     bordercolor="#666666"
     borderopacity="1.0"
     inkscape:pageopacity="0.0"
     inkscape:pageshadow="2"
     inkscape:zoom="0.24748737"
     inkscape:cx="44.148703"
     inkscape:cy="627.47186"
     inkscape:document-units="px"
     inkscape:current-layer="layer1"
     showgrid="false"
     inkscape:window-width="1920"
     inkscape:window-height="1147"
     inkscape:window-x="-8"
     inkscape:window-y="-8"
     inkscape:window-maximized="1"
     fit-margin-top="0"
     fit-margin-left="0"
     fit-margin-right="0"
     fit-margin-bottom="0" />
  <metadata
     id="metadata7">
    <rdf:RDF>
      <cc:Work
         rdf:about="">
        <dc:format>image/svg+xml</dc:format>
        <dc:type
           rdf:resource="http://purl.org/dc/dcmitype/StillImage" />
        <dc:title></dc:title>
      </cc:Work>
    </rdf:RDF>
  </metadata>
  <g
     inkscape:label="Layer 1"
     inkscape:groupmode="layer"
     id="layer1"
     transform="translate(-208.57143,-186.74423)">
    <g
       style="fill:#add943;fill-opacity:1"
       id="g3379"
       transform="translate(208.57121,186.74422)">
      <g
         style="fill:#add943;fill-opacity:1"
         id="g3337">
        <g
           style="fill:#add943;fill-opacity:1"
           id="g3339">
          <path
             style="fill:#add943;fill-opacity:1"
             d="M 243.22461 0.00390625 C 241.44329 0.082592773 239.78906 1.3933594 239.78906 3.3183594 L 239.78906 53.71875 C 221.94934 53.930875 204.70737 56.657145 188.39062 61.544922 A 90.000003 89.999995 0 0 1 217.10547 107.63672 C 224.50823 106.25065 232.11538 105.4449 239.89062 105.31836 L 239.89062 155.61719 C 239.89062 158.41719 243.28945 159.91875 245.68945 158.21875 L 349.28906 82.017578 C 350.98906 80.817578 350.98906 78.217969 349.28906 76.917969 L 245.58984 0.71875 C 244.87109 0.1875 244.0343 -0.031860352 243.22461 0.00390625 z M 375.2832 124.02344 C 369.99787 124.02387 364.68047 125.6457 360.08984 129.01758 C 348.28984 137.71758 346.08906 154.51758 355.28906 166.01758 C 372.58906 187.51758 383.49063 214.31836 384.89062 243.31836 C 385.61436 257.26643 384.11787 270.73321 380.85352 283.47266 A 90.000007 89.999995 0 0 1 426.88086 309.76562 C 427.66165 307.4362 428.39938 305.08781 429.08984 302.71875 C 435.88984 279.51875 438.29064 254.41797 435.39062 228.41797 C 431.39062 193.01797 417.19063 160.61758 395.89062 134.01758 C 390.66564 127.48633 383.00793 124.0228 375.2832 124.02344 z M 62.085938 188.88867 C 55.367429 211.98564 52.906538 236.95627 55.890625 262.81836 C 59.990625 298.21836 74.190234 330.61875 95.490234 357.21875 C 104.19023 368.21875 119.98906 370.51875 131.28906 362.21875 C 143.18906 353.51875 145.38945 336.71875 136.18945 325.21875 C 118.98945 303.61875 108.08984 276.91797 106.58984 247.91797 C 106.04268 237.42233 106.73423 227.17526 108.51367 217.28516 A 90.000003 89.999995 0 0 1 62.085938 188.88867 z M 248.1543 332.30469 C 247.3446 332.26892 246.50781 332.48633 245.78906 333.01758 L 142.08984 409.21875 C 140.38984 410.51875 140.38984 413.11836 142.08984 414.31836 L 245.68945 490.51758 C 248.08945 492.21758 251.49023 490.71797 251.49023 487.91797 L 251.49023 437.51758 C 266.4459 437.35753 280.98408 435.42438 294.91211 431.93359 A 90.000007 89.999995 0 0 1 272.24023 384.02734 C 265.51236 385.16815 258.61798 385.8163 251.58984 385.91797 L 251.58984 335.61719 C 251.58984 333.69219 249.93562 332.38337 248.1543 332.30469 z "
             transform="translate(2.2e-4,10e-6)"
             id="path3341" />
        </g>
      </g>
      <g
         style="fill:#add943;fill-opacity:1"
         id="g3343" />
      <g
         style="fill:#add943;fill-opacity:1"
         id="g3345" />
      <g
         style="fill:#add943;fill-opacity:1"
         id="g3347" />
      <g
         style="fill:#add943;fill-opacity:1"
         id="g3349" />
      <g
         style="fill:#add943;fill-opacity:1"
         id="g3351" />
      <g
         style="fill:#add943;fill-opacity:1"
         id="g3353" />
      <g
         style="fill:#add943;fill-opacity:1"
         id="g3355" />
      <g
         style="fill:#add943;fill-opacity:1"
         id="g3357" />
      <g
         style="fill:#add943;fill-opacity:1"
         id="g3359" />
      <g
         style="fill:#add943;fill-opacity:1"
         id="g3361" />
      <g
         style="fill:#add943;fill-opacity:1"
         id="g3363" />
      <g
         style="fill:#add943;fill-opacity:1"
         id="g3365" />
      <g
         style="fill:#add943;fill-opacity:1"
         id="g3367" />
      <g
         style="fill:#add943;fill-opacity:1"
         id="g3369" />
      <g
         style="fill:#add943;fill-opacity:1"
         id="g3371" />
    </g>
    <text
       xml:space="preserve"
       style="font-style:normal;font-weight:normal;font-size:30.64935112px;line-height:125%;font-family:sans-serif;letter-spacing:0px;word-spacing:0px;fill:#add943;fill-opacity:1;stroke:none;stroke-width:1px;stroke-linecap:butt;stroke-linejoin:miter;stroke-opacity:1"
       x="281.17999"
       y="375.90222"
       id="text3465"
       sodipodi:linespacing="125%"><tspan
         sodipodi:role="line"
         id="tspan3467"
         x="281.17999"
         y="375.90222"
         style="font-style:normal;font-variant:normal;font-weight:bold;font-stretch:normal;font-size:137.92207336px;font-family:'Droid Sans';-inkscape-font-specification:'Droid Sans Bold';fill:#add943;fill-opacity:1">F°</tspan></text>
    <text
       xml:space="preserve"
       style="font-style:normal;font-weight:normal;font-size:30.64927292px;line-height:125%;font-family:sans-serif;letter-spacing:0px;word-spacing:0px;fill:#add943;fill-opacity:1;stroke:none;stroke-width:1px;stroke-linecap:butt;stroke-linejoin:miter;stroke-opacity:1"
       x="497.63553"
       y="597.33911"
       id="text3469"
       sodipodi:linespacing="125%"><tspan
         sodipodi:role="line"
         id="tspan3471"
         x="497.63553"
         y="597.33911"
         style="font-style:normal;font-variant:normal;font-weight:bold;font-stretch:normal;font-size:137.92172241px;font-family:'Droid Sans';-inkscape-font-specification:'Droid Sans Bold';fill:#add943;fill-opacity:1">C°</tspan></text>
  </g>
</svg>
